# xmcd
#
# Track frame offsets:
#	150
#	13293
#	25650
#	43761
#	60123
#	74751
#	91101
#	107218
#	125645
#	135612
#	155293
#	167854
#
# Disc length: 2460 seconds
#
# Revision: 0
# Processed by: cddbd v1.4PL0 Copyright (c) Steve Scherf et al.
# Submitted via: EasyCDDAExtractor 4.6.9.1
#
DISCID=9f099a0c
DTITLE=George Strait - Honkytonkville
DYEAR=2003
DGENRE=Country
TTITLE0=She Used To Say That To Me
TTITLE1=Honkytonkville
TTITLE2=Look Who's Back From Town
TTITLE3=Cowboys Like Us
TTITLE4=Tell Me Something Bad About Tulsa
TTITLE5=As Far As It Goes
TTITLE6=I Found Jesus On The Jailhouse
TTITLE7=Desperately
TTITLE8=Honk If You Honky Tonk
TTITLE9=Heaven Is Missing An Angel
TTITLE10=Four Down And Twelve Across
TTITLE11=My Infinite Love
EXTD=
EXTT0=
EXTT1=
EXTT2=
EXTT3=
EXTT4=
EXTT5=
EXTT6=
EXTT7=
EXTT8=
EXTT9=
EXTT10=
EXTT11=
PLAYORDER=
